<?xml version="1.0" encoding="UTF-8"?>
<svg xmlns="http://www.w3.org/2000/svg" xmlns:xlink="http://www.w3.org/1999/xlink" width="28pt" height="28pt" viewBox="0 0 28 28" version="1.1">
<g id="surface1">
<path style=" stroke:none;fill-rule:evenodd;fill:#EC2B4A;fill-opacity:1;" d="M 14 28 C 6.269531 28 0 21.730469 0 14 C 0 6.269531 6.269531 0 14 0 C 21.730469 0 28 6.269531 28 14 C 28 21.730469 21.730469 28 14 28 Z M 22.398438 14 C 22.398438 15.03125 21.5625 15.867188 20.535156 15.867188 L 7.464844 15.867188 C 6.4375 15.867188 5.601562 15.03125 5.601562 14 C 5.601562 12.96875 6.4375 12.132812 7.464844 12.132812 L 20.535156 12.132812 C 21.5625 12.132812 22.398438 12.96875 22.398438 14 Z M 22.398438 14 "/>
</g>
</svg>
