<?xml version="1.0" encoding="UTF-8"?>
<svg xmlns="http://www.w3.org/2000/svg" xmlns:xlink="http://www.w3.org/1999/xlink" width="28pt" height="28pt" viewBox="0 0 28 28" version="1.1">
<g id="surface1">
<path style=" stroke:none;fill-rule:evenodd;fill:rgb(87.058824%,87.058824%,87.058824%);fill-opacity:1;" d="M 13.816406 27.632812 C 6.183594 27.632812 0 21.445312 0 13.816406 C 0 6.183594 6.183594 0 13.816406 0 C 21.445312 0 27.632812 6.183594 27.632812 13.816406 C 27.632812 21.445312 21.445312 27.632812 13.816406 27.632812 Z M 5.992188 16.929688 C 5.375 16.304688 5.375 15.296875 5.992188 14.675781 L 6.808594 13.867188 C 7.085938 13.585938 7.46875 13.425781 7.863281 13.429688 C 8.261719 13.433594 8.636719 13.601562 8.910156 13.886719 L 10.351562 15.382812 C 10.488281 15.523438 10.683594 15.609375 10.882812 15.609375 C 11.085938 15.609375 11.277344 15.523438 11.414062 15.382812 L 18.738281 7.832031 C 19.011719 7.542969 19.390625 7.375 19.792969 7.375 C 20.191406 7.371094 20.578125 7.535156 20.851562 7.816406 L 21.644531 8.617188 C 22.246094 9.238281 22.246094 10.230469 21.644531 10.851562 L 11.921875 20.726562 C 11.648438 21.011719 11.273438 21.171875 10.878906 21.175781 C 10.484375 21.179688 10.105469 21.023438 9.824219 20.742188 Z M 5.992188 16.929688 "/>
</g>
</svg>
