<?xml version="1.0" encoding="UTF-8"?>
<svg xmlns="http://www.w3.org/2000/svg" xmlns:xlink="http://www.w3.org/1999/xlink" width="40pt" height="40pt" viewBox="0 0 40 40" version="1.1">
<g id="surface1">
<path style=" stroke:none;fill-rule:nonzero;fill:#4EE2A3;fill-opacity:1;" d="M 20 0 C 8.972656 0 0 8.972656 0 20 C 0 31.027344 8.972656 40 20 40 C 31.027344 40 40 31.027344 40 20 C 40 8.972656 31.027344 0 20 0 Z M 28.570312 29.285156 L 11.429688 29.285156 C 10.640625 29.285156 10 28.644531 10 27.855469 C 10 27.070312 10.640625 26.429688 11.429688 26.429688 L 28.570312 26.429688 C 29.359375 26.429688 30 27.070312 30 27.855469 C 30 28.644531 29.359375 29.285156 28.570312 29.285156 Z M 28.570312 21.429688 L 11.429688 21.429688 C 10.640625 21.429688 10 20.789062 10 20 C 10 19.210938 10.640625 18.570312 11.429688 18.570312 L 28.570312 18.570312 C 29.359375 18.570312 30 19.210938 30 20 C 30 20.789062 29.359375 21.429688 28.570312 21.429688 Z M 28.570312 13.570312 L 11.429688 13.570312 C 10.640625 13.570312 10 12.929688 10 12.144531 C 10 11.355469 10.640625 10.714844 11.429688 10.714844 L 28.570312 10.714844 C 29.359375 10.714844 30 11.355469 30 12.144531 C 30 12.929688 29.359375 13.570312 28.570312 13.570312 Z M 28.570312 13.570312 "/>
</g>
</svg>
